<svg width="117" height="32" viewBox="0 0 117 32" fill="none" xmlns="http://www.w3.org/2000/svg">
<path d="M7.93945 13.8262L10.6143 7.35938H14.9541L9.99121 17.4355V23H5.89844V17.4355L0.924805 7.35938H5.26465L7.93945 13.8262ZM36.2129 7.35938V17.4893C36.2129 19.3369 35.6507 20.7549 34.5264 21.7432C33.402 22.7243 31.8981 23.2148 30.0146 23.2148C28.7757 23.2148 27.6836 22.9964 26.7383 22.5596C25.8001 22.1156 25.0697 21.4674 24.5469 20.6152C24.0241 19.763 23.7627 18.721 23.7627 17.4893V7.35938H27.8125V17.4893C27.8125 18.3773 27.9987 19.0146 28.3711 19.4014C28.7435 19.7809 29.2913 19.9707 30.0146 19.9707C30.738 19.9707 31.2786 19.7809 31.6367 19.4014C32.002 19.0146 32.1846 18.3773 32.1846 17.4893V7.35938H36.2129ZM60.4365 23V7.35938H65.5283C66.9606 7.35938 68.2246 7.68164 69.3203 8.32617C70.4232 8.9707 71.2861 9.8623 71.9092 11.001C72.5322 12.1325 72.8438 13.4395 72.8438 14.9219V15.4482C72.8438 16.9235 72.5322 18.2305 71.9092 19.3691C71.2861 20.5078 70.4303 21.3994 69.3418 22.0439C68.2533 22.6813 67.0036 23 65.5928 23H60.4365ZM65.5283 10.6143H64.4756V19.7559H65.5928C66.6097 19.7559 67.3867 19.4014 67.9238 18.6924C68.4681 17.9834 68.7402 16.902 68.7402 15.4482V14.9004C68.7402 12.043 67.6696 10.6143 65.5283 10.6143ZM86.0566 23H81.7275L87.4639 7.35938H91.2451L97.0137 23H92.6846L91.8682 20.3789H86.8623L86.0566 23ZM87.8721 17.124H90.8691L89.3652 12.2793L87.8721 17.124ZM109.604 13.8262L112.278 7.35938H116.618L111.655 17.4355V23H107.562V17.4355L102.589 7.35938H106.929L109.604 13.8262Z" fill="black"/>
<path d="M48.5 19C50.433 19 52 17.433 52 15.5C52 13.567 50.433 12 48.5 12C46.567 12 45 13.567 45 15.5C45 17.433 46.567 19 48.5 19Z" fill="#00AFFF"/>
</svg>
